<svg id="Layer_1" data-name="Layer 1" xmlns="http://www.w3.org/2000/svg" viewBox="0 0 461.08 134.67"><defs><style>.cls-1{fill:#171c48;}</style></defs><title>Ciber-Chile_Hipotecario-Mock</title><path class="cls-1" d="M60.2,29.52c0,16.84-10.84,28-27.1,28H10V86.61H0v-85H33.1c16.26,0,27.1,11.19,27.1,27.91m-10.61,0c0-11.07-6.92-18.45-17.3-18.45H10v37H32.29c10.38,0,17.3-7.38,17.3-18.57"/><path class="cls-1" d="M135.05,77.16v9.45h-3.23c-7.38,0-9.11-1.15-11.53-7.38L112.9,57.32c-1.26-3.35-2.3-4-5.53-4H82.92V86.61h-10v-85h31.61c17.18,0,28.6,9.58,28.6,24.69,0,10.61-5.77,18.45-15.23,21.79v1.5c2.66.92,3.93,2.89,5.31,6.58l5.77,18.1c.8,2.31,1.49,2.89,3.8,2.89ZM82.92,11.07V43.83h22c10.49,0,17.53-6.46,17.53-16,0-10.14-7.85-16.72-19.72-16.72Z"/><polygon class="cls-1" points="206.09 77.16 206.09 86.61 149.69 86.61 149.69 1.61 204.24 1.61 204.24 11.07 159.72 11.07 159.72 39.56 197.67 39.56 197.67 48.55 159.72 48.55 159.72 77.16 206.09 77.16"/><path class="cls-1" d="M213.35,59.16H224c2,12,11,20.19,24.45,20.19,11.88,0,20.53-6.35,20.53-16,0-8-5.88-13.15-16.38-14.42l-13.84-1.85c-14.3-1.84-22.95-9.68-22.95-22.25C215.77,9.92,228,0,245.41,0s29.64,9.8,32.06,25.37H266.63c-1.61-9.92-9.34-16.49-21.1-16.49-11.07,0-19.26,5.88-19.26,15.11,0,7.15,4.84,12.11,14.53,13.26l13.72,1.85c16,2.07,25,10.49,25,23.41,0,15.34-12.92,25.6-30.91,25.6-19,0-32.41-11.42-35.29-28.95"/><polygon class="cls-1" points="350.36 11.07 321.64 11.07 321.64 86.61 311.61 86.61 311.61 11.07 282.89 11.07 282.89 1.61 350.36 1.61 350.36 11.07"/><path class="cls-1" d="M353.59,44.06C353.59,17.65,370,0,394.53,0s40.83,17.65,40.83,44.17S419,88.11,394.53,88.11s-40.94-17.53-40.94-44m71,.11c0-20.64-12.11-34.48-30.1-34.48s-30.22,13.72-30.22,34.37,12.11,34.48,30.22,34.48,30.1-13.72,30.1-34.37"/><path class="cls-1" d="M461.08,12.05A11.56,11.56,0,1,1,449.49.47a11.67,11.67,0,0,1,11.59,11.58m-1.87,0a9.69,9.69,0,1,0-9.66,9.72,9.71,9.71,0,0,0,9.66-9.72m-6,1.47,1.64,4.63h-2l-1.52-4.46c-.23-.57-.34-.57-.85-.57h-3.16v5h-1.76V5.49h4.52c2.55,0,4.24,1.42,4.24,3.68a3.21,3.21,0,0,1-1.86,3.05v.34c.39.11.51.39.73,1m-5.87-6.27v4.12h2.88a2,2,0,0,0,2.2-2,2.34,2.34,0,0,0-2.6-2.09Z"/><path class="cls-1" d="M17,122.76a7,7,0,0,1-6.71,4.57c-4.57,0-7.6-3.43-7.6-8.64s3-8.61,7.6-8.61A7,7,0,0,1,17,114.59h2.85a9.4,9.4,0,0,0-9.48-6.94c-6.22,0-10.35,4.42-10.35,11s4.13,11.07,10.35,11.07a9.38,9.38,0,0,0,9.49-7Z"/><path class="cls-1" d="M21.13,114.59v2.08h3v12.68h2.34V114.59Zm3.5-6.94a1.8,1.8,0,1,0,1.79,1.79,1.81,1.81,0,0,0-1.79-1.79"/><path class="cls-1" d="M67.11,114.59v2.08H65.38c-2.14,0-3.07,1.74-3.07,4.54v8.15H59.94V114.59H62.2v2.08h.37a3.27,3.27,0,0,1,3.27-2.08Z"/><path class="cls-1" d="M105.55,121l-2.49-.35c-1.67-.23-2.6-.9-2.6-2.14,0-1.47,1.22-2.31,3.13-2.31s3.35.89,3.67,2.43h2.29c-.44-2.7-2.79-4.48-6-4.48s-5.38,1.82-5.38,4.56c0,2.2,1.39,3.56,4.39,4l2.52.35c1.79.23,2.63.93,2.63,2.17,0,1.53-1.33,2.51-3.41,2.51a4,4,0,0,1-4.06-2.5H97.87c.61,2.72,3.11,4.49,6.41,4.49S110,127.86,110,125c0-2.23-1.39-3.59-4.48-4"/><path class="cls-1" d="M118.76,116.67v-2.08h-3v-3.35h-2.34v3.35h-3v2.08h3v10.15a2.22,2.22,0,0,0,2.54,2.54h2.8v-2.05h-2.28a.61.61,0,0,1-.69-.7v-9.94Z"/><path class="cls-1" d="M124.19,107.66a1.79,1.79,0,1,0,1.8,1.79,1.81,1.81,0,0,0-1.8-1.79m-3.49,6.93v2.08h3v12.69H126V114.59Z"/><path class="cls-1" d="M58.07,122c0-4.65-2.86-7.78-7.14-7.78s-7.11,3.13-7.11,7.78,3,7.77,7.22,7.77a6.76,6.76,0,0,0,6.74-4.49H55.47a4.57,4.57,0,0,1-4.31,2.47c-2.82,0-4.77-1.89-5-5h12Zm-12-.85c.3-3,2.12-4.88,4.82-4.88s4.52,1.87,4.82,4.88Z"/><path class="cls-1" d="M96.8,122c0-4.65-2.87-7.77-7.14-7.77s-7.11,3.12-7.11,7.77,3,7.77,7.23,7.77a6.75,6.75,0,0,0,6.73-4.49H94.2a4.57,4.57,0,0,1-4.31,2.47c-2.82,0-4.78-1.88-5-4.95h12Zm-12-.85c.3-3,2.11-4.87,4.82-4.87s4.52,1.86,4.82,4.87Z"/><path class="cls-1" d="M36.56,114.18a5.21,5.21,0,0,0-4.63,2.49h-.52v-8.61H29.05v21.29H31.3v-2.54h.37a5.22,5.22,0,0,0,4.89,2.92c3.72,0,6.36-3.12,6.36-7.77s-2.64-7.78-6.36-7.78M36,127.71c-2.72,0-4.51-2.4-4.51-5.75s1.79-5.73,4.51-5.73,4.54,2.41,4.54,5.73-1.82,5.75-4.54,5.75"/><path class="cls-1" d="M78.82,114.59v2.08H78.4a5.32,5.32,0,0,0-4.79-2.48c-3.81,0-6.38,2.89-6.38,7.22s2.57,7.2,6.38,7.2a5.32,5.32,0,0,0,4.8-2.49h.32v5.81a.61.61,0,0,1-.69.69H69.66v2h8.9a2.22,2.22,0,0,0,2.54-2.54V114.59Zm-4.65,12c-2.69,0-4.51-2-4.51-5.15s1.82-5.17,4.51-5.17,4.53,2.08,4.53,5.17-1.82,5.15-4.53,5.15"/><path class="cls-1" d="M156.07,119.68v9.68H153.7v-8.64c0-2.55-1.42-4.48-3.59-4.48-2.45,0-4.1,2.51-4.1,5.89v7.23h-2.37V114.59h2.26v2.08h.49a5.34,5.34,0,0,1,4.53-2.48c3,0,5.15,2.19,5.15,5.49"/><path class="cls-1" d="M134.84,114.19c-4.34,0-7.23,3.12-7.23,7.77s2.89,7.77,7.23,7.77S142,126.64,142,122s-2.88-7.77-7.19-7.77m0,13.52c-2.89,0-4.8-2.4-4.8-5.75s1.91-5.72,4.8-5.72,4.77,2.4,4.77,5.72-1.91,5.75-4.77,5.75"/><polygon class="cls-1" points="131.46 110.11 137.82 107.65 138.56 109.71 131.89 111.24 131.46 110.11"/></svg>